<svg xmlns="http://www.w3.org/2000/svg" viewBox="0 0 443.03 106.9"><g id="Layer_2" data-name="Layer 2"><g id="Layer_1-2" data-name="Layer 1"><path d="M83.33,24.26a33.55,33.55,0,0,1,15,8.56c15.84,16.16,8.17,44-13.76,49.64A3.35,3.35,0,0,0,81.63,85c-4.06,13.39-15.94,21.78-30,21.36a29.84,29.84,0,0,1-27.81-23c-.11-.47-.23-.93-.35-1.39l0,0c2,.16,4.11.45,6.16.47C39,82.61,46.68,79,52.88,72c-2.64-4.08-5.08-8.07-5.46-12.91l12,0a33.05,33.05,0,0,1-6.92,13.59c1.41,1,2.79,1.87,4,2.93A29.44,29.44,0,0,0,79.9,83.19c1.31-.13,2.27-.52,2.31-2,.07-3.07.56-6.19.17-9.2A28.29,28.29,0,0,0,72.12,53.67c-4,2.67-7.92,5-12.7,5.41.12-3.57.25-7.13.37-10.69l.11-.8c4.7.56,8.48,3.06,12.23,5.76A30.68,30.68,0,0,0,81.05,42C83.72,36.33,83.87,30.34,83.33,24.26Z" style="fill:#d32e53"></path><path d="M183.89,43.36c-1.77,9.73-6.18,17.55-15.37,21.2-11,4.34-21.68,3.35-31-4.6-4.95-4.24-7.55-10-8.74-16.31a48.73,48.73,0,0,1,1-23.63C134,6.26,146-1.28,160.36.38,171.12,1.63,179,6.59,182.82,17a50,50,0,0,1,1.41,5.64H170.66c-.26-.67-.58-1.39-.83-2.13-1.69-5.17-5.3-8-10.64-8.64-5.49-.65-10.15.93-13.37,5.61-4.17,6-4.47,13-4.06,19.94.29,4.76,1.46,9.2,4.56,13.06,5.6,7,19.79,7.22,23.29-4.31.68-2.26,1.68-3,3.95-2.82C176.9,43.51,180.25,43.36,183.89,43.36Z" style="fill:#030303"></path><path d="M443,45.17H409.33c-.07,0-.13.08-.2.12a10,10,0,0,0,6.27,10.4c5,2,10.61.89,13.26-2.84a3.66,3.66,0,0,1,3.54-1.72c3.34.1,6.68,0,10.26,0-.81,5.12-3.81,8.54-7.58,11.3-9.3,6.83-25.2,5.31-33.05-3.1-4.75-5.08-5.59-11.46-5.52-18,.06-6.07,1.24-11.88,5.27-16.73,6-7.18,16.8-9.85,26.72-6.64,8.53,2.77,14,10.23,14.66,20.1C443.11,40.35,443,42.65,443,45.17Zm-33.63-8.46H430c-.05-5.51-4-9.44-9.53-9.7C414.11,26.73,410,30.27,409.35,36.71Z" style="fill:#030303"></path><path d="M234.9,65.06c-4.5,0-8.41.07-12.31-.06a2.82,2.82,0,0,1-1.89-1.49A15.4,15.4,0,0,1,220,60c-1.16.93-2.21,1.83-3.31,2.66a18.64,18.64,0,0,1-15.83,3.41,12.79,12.79,0,0,1-10.5-11.77c-.59-7.52,2.35-13.21,8.76-15.26,4.66-1.48,9.65-1.95,14.48-2.91a25.43,25.43,0,0,0,3.67-1,3.36,3.36,0,0,0,2.4-3.46c0-1.86-.65-3.64-2.49-3.88a34.64,34.64,0,0,0-9.37-.21c-2.64.38-3.37,3.08-4,5.54H191.94c.17-8.18,4.78-13.88,12.88-15.57a33.1,33.1,0,0,1,18.61,1.21c6,2.24,8.59,5.86,8.62,12.27,0,8.93,0,17.85.09,26.77,0,1.94.16,3.8,2,5.08C234.58,63.23,234.59,64.11,234.9,65.06ZM219.59,42.83c-2.44.62-4.65,1.2-6.87,1.75a56.2,56.2,0,0,0-6.23,1.57c-3,1.1-4.19,3.7-3.64,7,.42,2.47,2.32,4.08,5.24,4.43a10.11,10.11,0,0,0,11.48-9.43C219.68,46.36,219.59,44.61,219.59,42.83Z" style="fill:#030303"></path><path d="M323.31,50.05h12.58c.41,2.75,1.27,5.29,4.31,6.18,4,1.16,8.05,1.54,11.85-.51a3.76,3.76,0,0,0,1.7-3,4.52,4.52,0,0,0-2.29-3.15c-3.81-1.37-7.78-2.27-11.68-3.41a63.44,63.44,0,0,1-7.26-2.37c-7.56-3.22-10.1-11-6-18.17a16.45,16.45,0,0,1,11.93-8.36,32,32,0,0,1,16.08.93c6.83,2.3,10.05,6.62,10.56,14.08H353.11c-2.74-5.58-6.15-7.2-12.21-5.67-2,.5-3.64,1.54-3.7,3.8-.05,2.1,1.48,3,3.33,3.48,4.09,1,8.18,2,12.26,3.14a32.58,32.58,0,0,1,4.75,1.56c5.16,2.26,8.77,5.68,8.89,11.81.13,6.62-2.76,11.35-8.73,14.07-5.3,2.43-11,2.57-16.68,2.07a36.17,36.17,0,0,1-4.49-.72C328.34,63.94,323.86,58.64,323.31,50.05Z" style="fill:#030303"></path><path d="M24.44,23.7C27.6,11.32,35.26,3.35,47.85.66A29.73,29.73,0,0,1,82.78,22.27c.19.68.41,1.36.62,2a74.86,74.86,0,0,0-8.31-.43C66.64,24.34,59.66,28,54,34.19h-.62c-7.72-8.83-17.24-12.7-29-10.53Z" style="fill:#d32e53"></path><path d="M23.48,82C11.32,78.75,3.49,71.14.69,58.81c-3.49-15.33,6.62-31.36,21.88-35a9.69,9.69,0,0,1,1.87-.12l0,0c-.15,1.65-.39,3.3-.44,5-.34,9.46,3.29,17.27,10,23.74v1a31.79,31.79,0,0,0-9.86,15.2,35.72,35.72,0,0,0-.72,13.5Z" style="fill:#d32d53"></path><path d="M277.52,1.52h12.21V64.88H277.52Z" style="fill:#0b0b0b"></path><path d="M375.82,1.52H388V64.88H375.82Z" style="fill:#0b0b0b"></path><path d="M255.07,65H242.75V18.13h11.62v6.8l.45.46c3.34-5.9,8-9.23,15.05-8.32q0,6.15,0,12.29a68.21,68.21,0,0,0-7,.52c-4.14.7-6.76,3.29-7.27,7.45a100.4,100.4,0,0,0-.5,10.71C255,53.61,255.07,59.18,255.07,65Z" style="fill:#030303"></path><path d="M314.33,65H302V18.11h12.38Z" style="fill:#090909"></path><path d="M231.48,89.59c2.8-3.28,5.73-4.18,9.23-3.28a6.77,6.77,0,0,1,5.2,6.4c.16,4.52,0,9.05,0,13.66h-3c0-3.41,0-6.81,0-10.2,0-5-1.81-7.36-5.53-7.33s-5.86,2.71-5.86,7.41l0,9.8c0,.06-.09.13-.21.3h-2.79v-28h2.92Z" style="fill:#0d0d0d"></path><path d="M181.74,90.28l-.88-2.39a14.87,14.87,0,0,1,10.52-1.38,6.59,6.59,0,0,1,5.23,6.58c.11,4.38,0,8.76,0,13.25h-2.82l-.26-2.35c-2.9,2.47-6.07,3.54-9.73,2.45-3-.88-4.71-3-4.78-5.83s1.59-5.55,4.72-6,6.43-.11,9.66-.11C193.86,89.29,189.56,87.66,181.74,90.28Zm11.72,6.66a56,56,0,0,0-8.6.15c-1,.17-2.37,2-2.48,3.24-.1,1,1.07,2.67,2.12,3.27,2.31,1.31,4.82.86,7-.62C193.51,101.63,194,99.64,193.46,96.94Z" style="fill:#0b0b0b"></path><path d="M175.47,97.8H159.82c.41,2.84,1.68,4.82,4.2,5.79,3.36,1.29,6.24.27,8.85-2.21l1.8,1.48a10,10,0,0,1-17.88-4.21c-.52-3.79.05-7.37,3-10.1a9,9,0,0,1,10-1.87c3.76,1.49,5.24,4.66,5.7,8.42A26.41,26.41,0,0,1,175.47,97.8Zm-3.22-2.71c-.62-4.29-2.89-6.52-6.28-6.43s-5.7,2.67-6,6.43Z" style="fill:#0c0c0c"></path><path d="M137.19,106.37h-2.92v-28h2.79V89.32c.83-.71,1.3-1.16,1.81-1.55a8,8,0,0,1,8.55-1c2.9,1.24,4.1,3.66,4.14,6.67.06,4.28,0,8.56,0,13h-3.05c0-3.89,0-7.84,0-11.78,0-2.2-.7-4.13-2.8-5.15a5.68,5.68,0,0,0-6.1.56,6.26,6.26,0,0,0-2.43,5.45Z" style="fill:#040404"></path><path d="M302,1.21h12.41v11.2H302Z" style="fill:#090909"></path><path d="M223.12,103.41c.71,2.07,0,2.92-2,3.21-4.56.69-7.1-1.23-7.25-5.85-.12-3.73,0-7.47,0-11.37l-2.61-.31V86.58l2.51-.28V80.63h3.35v5.72h6.18c.05,1,.09,1.83.13,2.83h-6.26c0,4.18-.1,8.2,0,12.22.07,2,1.67,2.55,3.42,2.52A14.32,14.32,0,0,0,223.12,103.41Z" style="fill:#101010"></path><path d="M203.25,106.26V78.39l2.73-.14v28Z" style="fill:#010101"></path><path d="M59.79,48.39l-.38-1.31.49.51Z" style="fill:#d43257"></path><path d="M47.41,47.13l5.13-11.29c.26-.56.55-1.1.83-1.65H54c1.15,2.14,2.47,4.2,3.41,6.43a64.78,64.78,0,0,1,2.05,6.51Z" style="fill:#d43257"></path><path d="M34,52.36c.7-.22,1.42-.41,2.1-.68,3.79-1.52,7.57-3.06,11.35-4.59v12c-3.79-1.65-7.58-3.32-11.38-5-.67-.29-1.37-.52-2.06-.77Z" style="fill:#d43257"></path></g></g></svg>